# xmcd CD database file
#
# Track frame offsets:
#	150
#	14347
#	38382
#	54683
#	67052
#	88363
#	101392
#	115313
#	131183
#	145390
#	165441
#	182231
#
# Disc length: 2652 seconds
#
# Revision: 1
# Processed by: cddbd v1.5.2PL0 Copyright (c) Steve Scherf et al.
# Submitted via: CDex 1.82
#
DISCID=aa0a5a0c
DTITLE=Jerry Audley - Audley Familiar
DYEAR=2010
DGENRE=Country
TTITLE0=Lucky, Lucky Me
TTITLE1=Where Losing You Hits Home
TTITLE2=Never Say Never
TTITLE3=Drinkin' Thing
TTITLE4=Rollin' On
TTITLE5=I Hurt All Over
TTITLE6=Three Nickels and a Dime
TTITLE7=I've Been Loving You
TTITLE8=Definite Possibilities
TTITLE9=I Don'twanna Go
TTITLE10=Sundown
TTITLE11=Grandpa
EXTD=YEAR: 2010
EXTT0=
EXTT1=
EXTT2=
EXTT3=
EXTT4=
EXTT5=
EXTT6=
EXTT7=
EXTT8=
EXTT9=
EXTT10=
EXTT11=
PLAYORDER=
